# xmcd CD database file
#
# Track frame offsets:
#	150
#	15963
#	38068
#	60124
#	77453
#	100261
#	119061
#	139721
#	151431
#	167908
#	194881
#	212473
#
# Disc length: 3019 seconds
#
# Revision: 0
# Processed by: cddbd v1.5.2PL0 Copyright (c) Steve Scherf et al.
# Submitted via: Feurio! 1.68 - http://www.feurio.com
#
DISCID=970bc90c
DTITLE=John Kirkbride and Ferdl Eichner - Lifeline
DYEAR=2009
DGENRE=Blues
TTITLE0=Lord We Want To Come Home
TTITLE1=Gipsy Woman
TTITLE2=Bound To Live The Blues
TTITLE3=Lifeline
TTITLE4=Travelling Blues
TTITLE5=Shaking Ground
TTITLE6=The Joke
TTITLE7=Honey
TTITLE8=Same Old Story
TTITLE9=The Right Words To Say
TTITLE10=Gone
TTITLE11=Corridors Of Power
EXTD=
EXTT0=
EXTT1=
EXTT2=
EXTT3=
EXTT4=
EXTT5=
EXTT6=
EXTT7=
EXTT8=
EXTT9=
EXTT10=
EXTT11=
PLAYORDER=
